# xmcd
#
# Track frame offsets:
#	150
#	15483
#	28519
#	40872
#	53987
#	66309
#	86031
#	98361
#	109428
#	118764
#	129589
#	144272
#	156117
#	174779
#	190774
#	202204
#	224660
#
# Disc length: 3584 seconds
#
# Revision: 2
# Processed by: cddbd v1.5.2PL0 Copyright (c) Steve Scherf et al.
# Submitted via: EasyCDDAExtractor 12.0.1.1
#
DISCID=ef0dfe11
DTITLE=Various Artist - Latin Originals 3 - CD2
DYEAR=1900
DGENRE=Latin
TTITLE0=Jose Feliciano - RB 24 - Samba Pa'ti
TTITLE1=Cheo Feliciano - RB 25 - Aunque Tu
TTITLE2=Pedro Padilla Y Su Conjunto - RB 24 - Les Tres Santos Reyes
TTITLE3=Sonora Marancera Y Cello Gonzalez - RB 25 - Atribulao
TTITLE4=Joe Loco - RB 25 - Polonaise Op.53
TTITLE5=Sträter Orchestra - RB 25 - Song From A Secret Garden
TTITLE6=Virginia Lopez - RB 25 - Ya Tu Veras
TTITLE7=Sträter Orchestra - RB 25 - Paxi Ni Ngongo
TTITLE8=Sträter Orchestra - PD 60 - Espana Cani
TTITLE9=Sträter Orchestra - PD 60 - Espana Cani
TTITLE10=Hank Ballard And The Midniters - JV 44 - Finger Poppin' Time
TTITLE11=Sha Na Na - JV 42 - Rockin Robin
TTITLE12=Tony Burgos Orchestra - JV 42 - Jump Jive N'Wail
TTITLE13=DS Band - JV 43 - La Taberna Des Buda
TTITLE14=Frank Ballard - JV 42 - Move On Down The Line
TTITLE15=Dee Clark - JV 43 - Little Bitty Pretty One
TTITLE16=N/A - Daten-CD
EXTD=
EXTT0=
EXTT1=
EXTT2=
EXTT3=
EXTT4=
EXTT5=
EXTT6=
EXTT7=
EXTT8=
EXTT9=
EXTT10=
EXTT11=
EXTT12=
EXTT13=
EXTT14=
EXTT15=
EXTT16=
PLAYORDER=
